PathFileType	4	(X/Y/Z)	\\Move.snu.ac.kr\motion\Animal\091204_091205_Bird\091205_bird\Project 2\Capture day 2\Session 1\pigeon_029.trc
DataRate	CameraRate	NumFrames	NumMarkers	Units	OrigDataRate	OrigDataStartFrame	OrigNumFrames
240.0	240.0	18	14	mm	240.0	1	3339
Frame#	Time	14MarkersBird:Head			14MarkersBird:C_back			14MarkersBird:Spine			14MarkersBird:L-shoulder			14MarkersBird:L-elbow			14MarkersBird:L-wrist			14MarkersBird:L-hand			14MarkersBird:R-shoulder			14MarkersBird:R-elbow			14MarkersBird:R-Wrist			14MarkersBird:R-hand			14MarkersBird:C_Tail			14MarkersBird:L-Tale			14MarkersBird:R-Tale			
		X1	Y1	Z1	X2	Y2	Z2	X3	Y3	Z3	X4	Y4	Z4	X5	Y5	Z5	X6	Y6	Z6	X7	Y7	Z7	X8	Y8	Z8	X9	Y9	Z9	X10	Y10	Z10	X11	Y11	Z11	X12	Y12	Z12	X13	Y13	Z13	X14	Y14	Z14	

2436	10.146	216.66020	1535.81384	-1466.98132	269.27902	1519.62451	-1501.13696	303.27960	1498.10205	-1539.51172	259.20761	1509.98059	-1460.24854	287.54260	1514.83057	-1459.76367	279.39941	1504.25122	-1415.96936	288.57077	1504.04431	-1387.63245	229.03038	1525.47937	-1503.49255	238.31235	1540.37561	-1531.84521	192.37379	1540.10608	-1540.01428	166.14903	1546.40027	-1572.03113	382.90649	1428.94995	-1601.38171	383.50540	1448.97351	-1495.99988	283.87222	1450.76184	-1645.28882	
2437	10.150	211.90685	1545.50806	-1468.36377	266.87341	1528.99194	-1503.22449	301.00058	1505.55151	-1540.61646	256.20786	1518.25598	-1462.10779	284.27933	1518.25940	-1459.75024	272.52304	1501.30334	-1418.79785	280.00470	1495.14111	-1390.43506	225.27524	1534.23181	-1506.57458	230.50262	1544.33130	-1536.32825	185.52397	1538.74927	-1543.09216	155.02654	1536.39038	-1567.34900	374.60611	1427.97571	-1600.59644	378.20187	1453.15564	-1495.97766	277.71967	1451.68616	-1643.48132	
2438	10.154	207.18068	1554.94556	-1469.74438	264.62817	1538.50232	-1505.42944	295.83020	1510.96265	-1543.00818	253.08463	1527.37280	-1464.17163	280.39636	1522.28345	-1461.26648	264.30261	1500.69751	-1424.29236	267.08609	1488.19861	-1397.31897	222.03867	1543.47595	-1508.79529	222.80142	1547.59753	-1539.10388	179.96628	1537.31152	-1541.39355	147.18796	1527.70642	-1559.71375	365.39667	1426.83521	-1599.42908	372.86243	1457.75977	-1495.79663	271.17780	1453.21948	-1641.31055	
2439	10.158	202.85931	1563.82385	-1471.00830	261.66293	1547.30273	-1507.81482	293.97238	1519.19348	-1543.66382	250.02565	1537.73352	-1466.39075	276.03983	1527.86938	-1464.49011	254.54373	1506.79309	-1431.05859	251.76280	1490.59119	-1408.60522	219.33388	1552.45203	-1510.93201	218.15363	1551.62280	-1540.13928	176.50758	1540.24902	-1535.25659	144.45580	1525.56860	-1548.10571	355.87756	1427.02649	-1596.67615	367.30725	1462.89099	-1495.54883	264.90570	1456.66284	-1639.69690	
2440	10.163	198.63181	1572.56335	-1472.33484	258.49152	1555.94543	-1510.16663	291.19696	1526.70764	-1544.71765	246.95522	1547.78979	-1468.67944	271.95413	1533.74585	-1467.55603	245.72487	1513.97974	-1436.91931	238.00241	1494.72107	-1418.59387	216.27890	1561.22424	-1512.95886	213.41574	1555.94531	-1541.39453	173.29584	1544.19556	-1530.01208	142.08447	1524.62524	-1537.56592	346.56168	1427.60522	-1594.02783	361.60678	1467.75208	-1495.42163	258.64569	1460.33020	-1638.23694	
2441	10.167	194.60115	1580.99792	-1473.71667	254.85936	1564.20911	-1512.46545	288.09430	1534.08374	-1545.80042	243.80519	1557.62952	-1471.05298	268.25894	1540.44543	-1470.77405	238.25539	1524.06335	-1441.77942	226.24324	1503.15039	-1427.34387	212.88885	1569.62158	-1514.82959	209.20055	1560.96936	-1542.64368	170.88663	1550.46008	-1525.45178	141.14656	1526.88538	-1528.01196	337.47488	1429.07410	-1591.33801	355.59509	1472.29700	-1495.43237	252.37398	1464.68262	-1637.04761	
2442	10.171	190.73900	1589.11292	-1475.14478	250.68817	1572.04382	-1514.62585	284.65051	1541.41443	-1546.81897	240.45058	1567.13074	-1473.42188	265.13348	1548.17664	-1474.10669	232.87578	1537.05127	-1445.43665	217.44310	1515.83276	-1434.06189	209.17400	1577.58313	-1516.58618	205.65118	1566.96924	-1544.10632	169.22398	1559.17139	-1522.42419	141.31573	1532.76245	-1520.33179	328.69312	1431.59766	-1588.85071	349.16876	1476.45874	-1495.57593	245.97360	1469.69812	-1636.07629	
2443	10.175	186.96898	1596.95618	-1476.60962	246.00334	1579.48303	-1516.54919	280.49911	1548.45947	-1547.88098	236.76299	1576.18298	-1475.65405	262.60919	1557.03223	-1477.46985	230.06433	1552.11023	-1447.93103	212.40237	1531.43921	-1438.09155	205.17430	1585.13342	-1518.25354	202.84012	1574.05359	-1546.07544	167.94121	1569.85815	-1521.80383	141.72929	1541.81726	-1515.69873	320.26187	1435.10950	-1586.88159	342.33301	1480.29272	-1495.83289	239.32144	1475.14941	-1635.20081	
2444	10.179	183.23061	1604.59302	-1478.11011	240.88956	1586.56812	-1518.17664	275.51205	1555.07751	-1549.05579	232.67059	1584.77173	-1477.64795	260.45850	1567.03857	-1480.93933	229.61067	1568.29468	-1449.72571	211.37010	1548.47974	-1439.49060	200.95209	1592.31042	-1519.78833	200.92432	1582.14941	-1548.55994	166.69067	1581.94519	-1523.89600	141.64426	1553.24536	-1515.01855	312.18402	1439.42969	-1585.61145	335.23569	1483.99902	-1496.19226	232.42458	1480.83301	-1634.34375	
2445	10.183	179.47118	1612.08215	-1479.66150	235.47711	1593.32434	-1519.51379	269.80402	1561.25525	-1550.33887	228.19057	1592.92078	-1479.36438	258.22845	1578.03186	-1484.77527	230.74223	1584.88489	-1451.57104	214.17088	1565.80444	-1439.06409	196.55142	1599.16125	-1521.12061	200.04796	1591.03564	-1551.15454	165.42110	1594.93762	-1528.42358	140.78055	1566.11890	-1518.71191	304.47095	1444.35742	-1585.07776	328.16208	1487.83142	-1496.67151	225.49092	1486.66455	-1633.54382	
2446	10.188	175.62418	1619.47498	-1481.28491	229.91989	1599.77612	-1520.61426	263.92587	1567.26965	-1551.54968	223.40175	1600.65027	-1480.81409	255.36447	1589.60229	-1489.31836	232.43497	1601.42786	-1454.31091	220.29163	1582.82178	-1438.35583	192.01840	1605.76343	-1522.21326	200.22592	1600.41553	-1553.14575	164.53632	1608.41614	-1534.60608	139.56378	1579.67126	-1526.56946	297.16580	1449.72546	-1585.21008	321.48624	1492.04004	-1497.30188	218.84210	1492.65955	-1632.92969	
2447	10.192	171.62399	1626.81360	-1482.98804	224.33199	1605.98792	-1521.56665	258.43466	1573.40735	-1552.49280	218.43243	1607.93237	-1482.03467	251.38080	1601.18005	-1494.75537	233.70135	1617.53821	-1458.59338	228.77419	1599.47009	-1439.40015	187.45447	1612.18970	-1523.08569	201.24315	1609.94812	-1553.84192	164.71686	1621.97900	-1541.29980	139.06374	1593.52612	-1537.74329	290.30991	1455.38440	-1585.84680	315.54559	1496.80762	-1498.07935	212.71930	1498.81775	-1632.61719	
2448	10.196	167.44743	1634.13245	-1484.75183	218.86211	1612.09729	-1522.49072	253.70213	1579.84851	-1553.04968	213.44020	1614.71777	-1483.11072	246.18625	1612.40967	-1501.01550	233.81589	1632.80408	-1464.61792	238.05728	1616.03931	-1443.99158	183.06053	1618.47949	-1523.82715	202.68390	1619.25806	-1552.90112	166.42276	1635.23303	-1547.21143	140.56935	1607.80298	-1550.87817	283.93393	1461.19153	-1586.76050	310.48431	1502.19507	-1498.92566	207.14955	1505.01282	-1632.60571	
2449	10.200	163.13399	1641.45679	-1486.53320	213.80182	1618.15222	-1523.39868	249.72845	1586.54163	-1553.26843	208.54837	1621.02356	-1484.17603	239.85559	1622.98218	-1507.73914	232.40446	1646.91711	-1472.09863	246.12187	1632.90161	-1452.81628	179.04135	1624.61877	-1524.50781	204.06958	1627.98804	-1550.43506	169.47983	1647.82788	-1551.27747	145.07156	1622.94348	-1564.25244	278.07434	1467.01160	-1587.70813	306.18646	1508.12097	-1499.69958	202.00531	1511.02209	-1632.78577	
2450	10.204	158.75980	1648.79895	-1488.28833	208.97691	1623.99963	-1524.32117	246.03729	1593.19299	-1553.38147	203.78967	1626.97791	-1485.34583	232.16115	1631.75720	-1513.86902	229.38432	1659.77515	-1480.41077	251.05013	1650.15405	-1465.20398	175.41725	1630.53284	-1525.07202	205.00963	1635.95410	-1546.91077	173.14418	1659.53931	-1553.06592	152.85106	1639.26538	-1575.92834	272.80829	1472.72949	-1588.48254	302.38086	1514.41174	-1500.26501	197.18214	1516.65417	-1633.04321	
2451	10.208	154.39606	1656.14294	-1490.00281	204.30721	1629.53357	-1525.27869	242.19217	1599.51550	-1553.56018	199.12492	1632.76404	-1486.66064	224.97346	1639.63501	-1518.78699	224.86398	1671.42529	-1488.74182	251.62567	1667.37109	-1479.64954	171.98616	1636.15308	-1525.42493	205.19867	1643.05847	-1542.82581	176.49123	1670.31421	-1552.85779	163.24355	1656.57373	-1584.09106	268.28146	1478.27478	-1588.96521	298.82166	1520.88220	-1500.55811	192.68741	1521.79688	-1633.34546	
2452	10.212	150.08176	1663.43579	-1491.68860	199.77507	1634.77515	-1526.26294	238.30322	1605.26587	-1553.72815	194.51808	1638.50684	-1488.09814	217.90910	1646.84961	-1523.00903	219.10849	1681.93127	-1496.18799	247.60710	1683.72644	-1494.41406	168.48882	1641.49854	-1525.64307	205.07176	1650.14075	-1538.66516	178.66615	1680.22803	-1551.38440	174.70241	1674.16736	-1587.63367	264.69772	1483.65063	-1589.14893	295.37372	1527.37939	-1500.59326	188.61623	1526.40161	-1633.73608	
2453	10.217	145.82559	1670.60071	-1493.35669	195.34656	1639.78137	-1527.26025	234.27460	1610.61353	-1553.92529	190.01894	1644.21582	-1489.60144	210.88052	1653.01904	-1525.85425	212.65691	1691.33826	-1501.88477	239.75455	1698.36853	-1507.70715	164.69249	1646.70874	-1526.05542	204.12830	1658.92065	-1535.66235	178.91200	1689.37402	-1549.59546	185.07025	1691.19739	-1586.70740	262.22928	1488.93188	-1589.10583	291.98538	1533.79419	-1500.42810	185.07068	1530.46729	-1634.25623	
